<?xml version="1.0" encoding="UTF-8" standalone="no"?>
<!-- Generator: Adobe Illustrator 16.0.0, SVG Export Plug-In . SVG Version: 6.00 Build 0)  -->

<svg
   version="1.1"
   id="Capa_1"
   x="0px"
   y="0px"
   width="548.291px"
   height="548.291px"
   viewBox="0 0 548.291 548.291"
   style="enable-background:new 0 0 548.291 548.291;"
   xml:space="preserve"
   sodipodi:docname="cloud-arrow-down.svg"
   inkscape:version="1.2.1 (9c6d41e, 2022-07-14)"
   xmlns:inkscape="http://www.inkscape.org/namespaces/inkscape"
   xmlns:sodipodi="http://sodipodi.sourceforge.net/DTD/sodipodi-0.dtd"
   xmlns="http://www.w3.org/2000/svg"
   xmlns:svg="http://www.w3.org/2000/svg"><defs
   id="defs50" /><sodipodi:namedview
   id="namedview48"
   pagecolor="#b6b6b6"
   bordercolor="#666666"
   borderopacity="1.0"
   inkscape:showpageshadow="2"
   inkscape:pageopacity="0"
   inkscape:pagecheckerboard="0"
   inkscape:deskcolor="#000000"
   showgrid="false"
   inkscape:zoom="0.43042836"
   inkscape:cx="83.637612"
   inkscape:cy="340.35861"
   inkscape:window-width="1440"
   inkscape:window-height="847"
   inkscape:window-x="0"
   inkscape:window-y="25"
   inkscape:window-maximized="1"
   inkscape:current-layer="Capa_1" />

<g
   id="g17">
</g>
<g
   id="g19">
</g>
<g
   id="g21">
</g>
<g
   id="g23">
</g>
<g
   id="g25">
</g>
<g
   id="g27">
</g>
<g
   id="g29">
</g>
<g
   id="g31">
</g>
<g
   id="g33">
</g>
<g
   id="g35">
</g>
<g
   id="g37">
</g>
<g
   id="g39">
</g>
<g
   id="g41">
</g>
<g
   id="g43">
</g>
<g
   id="g45">
</g>
<path
   fill-rule="evenodd"
   d="m 262.42006,368.68294 a 16.564863,16.564863 0 0 0 23.45585,0 L 352.13536,302.4235 A 16.585798,16.585798 0 0 0 328.6795,278.96764 l -37.96665,37.9998 V 191.30639 a 16.56487,16.56487 0 0 0 -33.12974,0 v 125.66105 l -37.96666,-37.9998 a 16.585791,16.585791 0 1 0 -23.45584,23.45586 z"
   id="path1747"
   style="fill:#ffffff;fill-opacity:1;stroke-width:33.1297" /><path
   d="M 155.07727,136.3921 A 183.20739,183.20739 0 0 1 274.1455,91.932013 c 89.11897,0 163.09766,66.259437 171.14818,151.701017 52.74251,7.45417 93.88964,51.61612 93.88964,105.81634 0,59.50098 -49.62834,106.90963 -109.75879,106.90963 H 134.37118 c -68.677909,0 -125.2634817,-54.13397 -125.2634817,-121.98366 0,-58.40771 41.9422217,-106.7771 97.4676517,-119.0351 4.73756,-28.59095 23.12455,-57.08251 48.50192,-78.94814 z m 21.63371,25.07921 c -25.07919,21.63371 -38.19857,47.70681 -38.19857,68.11472 v 14.84211 l -14.74273,1.62336 c -46.282232,5.06883 -81.53226,43.06863 -81.53226,88.32384 0,48.60132 40.749562,88.85392 92.13376,88.85392 h 295.05335 c 42.83674,0 76.62906,-33.52728 76.62906,-73.77989 0,-40.28575 -33.79232,-73.81302 -76.62906,-73.81302 H 412.85968 V 259.07147 C 412.89278,185.52349 351.27151,125.06174 274.1455,125.06174 a 150.07766,150.07766 0 0 0 -97.43452,36.4427 z"
   id="path1749"
   style="fill:#ffffff;fill-opacity:1;stroke-width:33.1297" /></svg>
