<?xml version="1.0" encoding="UTF-8" standalone="no"?>
<!-- Generator: Adobe Illustrator 16.0.0, SVG Export Plug-In . SVG Version: 6.00 Build 0)  -->

<svg
   version="1.1"
   id="Capa_1"
   x="0px"
   y="0px"
   width="548.291px"
   height="548.291px"
   viewBox="0 0 548.291 548.291"
   style="enable-background:new 0 0 548.291 548.291;"
   xml:space="preserve"
   sodipodi:docname="geo-fill.svg"
   inkscape:version="1.2.1 (9c6d41e, 2022-07-14)"
   xmlns:inkscape="http://www.inkscape.org/namespaces/inkscape"
   xmlns:sodipodi="http://sodipodi.sourceforge.net/DTD/sodipodi-0.dtd"
   xmlns="http://www.w3.org/2000/svg"
   xmlns:svg="http://www.w3.org/2000/svg"><defs
   id="defs50" /><sodipodi:namedview
   id="namedview48"
   pagecolor="#b6b6b6"
   bordercolor="#666666"
   borderopacity="1.0"
   inkscape:showpageshadow="2"
   inkscape:pageopacity="0"
   inkscape:pagecheckerboard="0"
   inkscape:deskcolor="#000000"
   showgrid="false"
   inkscape:zoom="0.43042836"
   inkscape:cx="-713.24297"
   inkscape:cy="340.35861"
   inkscape:window-width="1440"
   inkscape:window-height="847"
   inkscape:window-x="0"
   inkscape:window-y="25"
   inkscape:window-maximized="1"
   inkscape:current-layer="Capa_1" />

<g
   id="g17">
</g>
<g
   id="g19">
</g>
<g
   id="g21">
</g>
<g
   id="g23">
</g>
<g
   id="g25">
</g>
<g
   id="g27">
</g>
<g
   id="g29">
</g>
<g
   id="g31">
</g>
<g
   id="g33">
</g>
<g
   id="g35">
</g>
<g
   id="g37">
</g>
<g
   id="g39">
</g>
<g
   id="g41">
</g>
<g
   id="g43">
</g>
<g
   id="g45">
</g>
<path
   fill-rule="evenodd"
   d="m 154.5603,154.55472 a 119.58523,119.58523 0 1 1 134.53338,118.65843 v 165.35648 a 14.948159,14.948159 0 0 1 -29.89631,0 V 273.24304 A 119.58523,119.58523 0 0 1 154.5603,154.52481 Z m 74.53149,256.33093 a 14.948153,14.948153 0 0 1 -12.28738,17.19038 c -21.28617,3.52775 -38.26727,8.81941 -49.47838,14.73888 a 39.433228,39.433228 0 0 0 -11.06164,7.92252 8.9987884,8.9987884 0 0 0 -1.70409,2.69066 v 0.0897 l 0.0598,0.23916 a 4.3947572,4.3947572 0 0 0 0.47833,0.98658 18.446022,18.446022 0 0 0 4.33496,4.48446 c 4.93289,3.88651 13.0049,8.07199 24.3057,11.80903 22.45213,7.47409 54.41128,12.37707 90.40644,12.37707 35.99515,0 67.9543,-4.87309 90.40643,-12.37707 11.3008,-3.76693 19.37281,-7.92252 24.3057,-11.80903 a 18.505814,18.505814 0 0 0 4.36486,-4.48446 4.4246534,4.4246534 0 0 0 0.44844,-0.98658 l 0.0598,-0.23916 v -0.11957 a 8.9987884,8.9987884 0 0 0 -1.70408,-2.69068 39.403332,39.403332 0 0 0 -11.06164,-7.89261 c -11.24105,-5.91949 -28.19225,-11.21115 -49.47842,-14.7389 a 14.948153,14.948153 0 1 1 4.903,-29.47776 c 23.02015,3.79683 43.40943,9.80599 58.50707,17.7584 13.78219,7.26481 28.73035,19.22333 28.73035,37.16111 0,12.73583 -7.77304,22.48202 -16.26359,29.20869 -8.66993,6.81636 -20.3295,12.34718 -33.36427,16.68215 -26.24897,8.7596 -61.55651,13.90177 -99.85368,13.90177 -38.29716,0 -73.6047,-5.14217 -99.85366,-13.90177 -13.03479,-4.33497 -24.69435,-9.86579 -33.36428,-16.68215 -8.49054,-6.72667 -16.26359,-16.47286 -16.26359,-29.20869 0,-17.90788 14.94815,-29.8963 28.73036,-37.16111 15.09763,-7.95241 35.4869,-13.96157 58.50707,-17.7584 a 14.948153,14.948153 0 0 1 17.19037,12.28738 z"
   id="path2605"
   style="fill:#ffffff;fill-opacity:1;stroke-width:29.8963" /></svg>
