<?xml version="1.0" encoding="UTF-8" standalone="no"?>
<svg
   width="16"
   height="16"
   fill="currentColor"
   class="bi bi-file-earmark-spreadsheet"
   viewBox="0 0 16 16"
   version="1.1"
   id="svg3280"
   sodipodi:docname="file-earmark-spreadsheet.svg"
   inkscape:version="1.2.1 (9c6d41e, 2022-07-14)"
   xmlns:inkscape="http://www.inkscape.org/namespaces/inkscape"
   xmlns:sodipodi="http://sodipodi.sourceforge.net/DTD/sodipodi-0.dtd"
   xmlns="http://www.w3.org/2000/svg"
   xmlns:svg="http://www.w3.org/2000/svg">
  <defs
     id="defs3284" />
  <sodipodi:namedview
     id="namedview3282"
     pagecolor="#b2b2b2"
     bordercolor="#666666"
     borderopacity="1.0"
     inkscape:showpageshadow="2"
     inkscape:pageopacity="0"
     inkscape:pagecheckerboard="0"
     inkscape:deskcolor="#d1d1d1"
     showgrid="false"
     inkscape:zoom="14.75"
     inkscape:cx="-3.8983051"
     inkscape:cy="8.0338983"
     inkscape:window-width="1440"
     inkscape:window-height="847"
     inkscape:window-x="0"
     inkscape:window-y="25"
     inkscape:window-maximized="1"
     inkscape:current-layer="svg3280" />
  <path
     d="M14 14V4.5L9.5 0H4a2 2 0 0 0-2 2v12a2 2 0 0 0 2 2h8a2 2 0 0 0 2-2zM9.5 3A1.5 1.5 0 0 0 11 4.5h2V9H3V2a1 1 0 0 1 1-1h5.5v2zM3 12v-2h2v2H3zm0 1h2v2H4a1 1 0 0 1-1-1v-1zm3 2v-2h3v2H6zm4 0v-2h3v1a1 1 0 0 1-1 1h-2zm3-3h-3v-2h3v2zm-7 0v-2h3v2H6z"
     id="path3278"
     style="stroke:none;stroke-opacity:1;fill:#f9f9f9;fill-opacity:1" />
</svg>
